# AST/ASF file generated using VICON BodyLanguage
# -----------------------------------------------
:version 1.10
:name VICON
:units
  mass 1.0
  length 0.45
  angle deg
:documentation
   .ast/.asf automatically generated from VICON data using
   VICON BodyBuilder and BodyLanguage model FoxedUp or BRILLIANT.MOD
:root
   order TX TY TZ RX RY RZ
   axis XYZ
   position 0 0 0  
   orientation 0 0 0 
:bonedata
  begin
     id 1 
     name lhipjoint
     direction 0.576517 -0.752066 0.319413 
     length 2.45433 
     axis 0 0 0  XYZ
  end
  begin
     id 2 
     name lfemur
     direction 0.34202 -0.939693 0  
     length 7.54459  
     axis 0 0 20  XYZ
    dof rx ry rz
    limits (-160.0 20.0)
           (-70.0 70.0)
           (-60.0 70.0)
  end
  begin
     id 3 
     name ltibia
     direction 0.34202 -0.939693 0   
     length 7.73986   
     axis 0 0 20   XYZ
    dof rx
    limits (-10.0 170.0)
  end
  begin
     id 4 
     name lfoot
     direction 0.090693 -0.249177 0.964202   
     length 2.28437   
     axis -90 7.62852e-016 20   XYZ
    dof rx rz
    limits (-45.0 90.0)
           (-70.0 20.0)
  end
  begin
     id 5 
     name ltoes
     direction 1.5356e-011 -4.21928e-011 1   
     length 1.14243   
     axis -90 7.62852e-016 20   XYZ
    dof rx
    limits (-90.0 20.0)
  end
  begin
     id 6 
     name rhipjoint
     direction -0.573937 -0.753736 0.320122   
     length 2.44889  
     axis 0 0 0  XYZ 
  end
  begin
     id 7 
     name rfemur
     direction -0.34202 -0.939693 0   
     length 7.50166   
     axis 0 0 -20   XYZ
    dof rx ry rz
    limits (-160.0 20.0)
           (-70.0 70.0)
           (-70.0 60.0)
  end
  begin
     id 8 
     name rtibia
     direction -0.34202 -0.939693 0   
     length 7.54266   
     axis 0 0 -20   XYZ
    dof rx
    limits (-10.0 170.0)
 end
 begin
     id 9 
     name rfoot
     direction -0.114017 -0.31326 0.942798   
     length 2.34212  
     axis -90 -7.62852e-016 -20   XYZ
    dof rx rz
    limits (-45.0 90.0)
           (-20.0 70.0)
  end
  begin
     id 10 
     name rtoes
     direction -1.53557e-011 -4.21867e-011 1   
     length 1.16246   
     axis -90 -7.62852e-016 -20   XYZ
    dof rx
    limits (-90.0 20.0)
  end
  begin
     id 11 
     name lowerback
     direction -0.0228371 0.999155 -0.034167   
     length 2.0537   
     axis 0 0 0   XYZ
    dof rx ry rz
    limits (-20.0 45.0)
           (-30.0 30.0)
           (-30.0 30.0)
  end
  begin
     id 12 
     name upperback
     direction 0.0198981 0.999794 0.00389455   
     length 2.05302   
     axis 0 0 0   XYZ
    dof rx ry rz
    limits (-20.0 45.0)
           (-30.0 30.0)
           (-30.0 30.0)
  end
  begin
     id 13 
     name thorax
     direction 0.0304566 0.99935 0.0192987   
     length 2.05315   
     axis 0 0 0   XYZ
    dof rx ry rz
    limits (-20.0 45.0)
           (-30.0 30.0)
           (-30.0 30.0)
  end
  begin
     id 14 
     name lowerneck
     direction -0.0196762 0.99417 0.106017   
     length 1.82056   
     axis 0 0 0   XYZ
    dof rx ry rz
    limits (-20.0 45.0)
           (-30.0 30.0)
           (-30.0 30.0)
  end
  begin
     id 15 
     name upperneck
     direction 0.00517787 0.9802 -0.197944   
     length 1.83835   
     axis 0 0 0   XYZ
    dof rx ry rz
    limits (-20.0 45.0)
           (-30.0 30.0)
           (-30.0 30.0)
  end
  begin
     id 16
     name head
     direction 0.00211419 0.996945 -0.078081  
     length 1.85629  
     axis 0 0 0   XYZ
    dof rx ry rz
    limits (-20.0 45.0)
           (-30.0 30.0)
           (-30.0 30.0)
  end
  begin
     id 17 
     name lclavicle
     direction 0.930001 0.365811 -0.0357824  
     length 3.81961  
     axis 0 0 0   XYZ
    dof ry rz
    limits (-20.0 10.0)
           (0.0 20.0)
  end
  begin
     id 18 
     name lhumerus
     direction 1 -4.48968e-011 -3.06644e-027   
     length 5.14507   
     axis 180 -30 -90   XYZ
    dof rx ry rz
    limits (-60.0 90.0)
           (-90.0 90.0)
           (-90.0 90.0)
  end
  begin
     id 19
     name lradius
     direction 1 -4.48965e-011 9.06925e-028   
     length 3.50646   
     axis 180 -30 -90   XYZ
    dof rx
    limits (-10.0 170.0)
  end
  begin
     id 20
     name lwrist
     direction 1 -4.48957e-011 1.03922e-027   
     length 1.75323   
     axis -2.56395e-016 90 90   XYZ
    dof ry
    limits (-180.0 0.0)
 end
  begin
     id 21 
     name lhand
     direction 1 -4.48967e-011 2.08017e-027   
     length 0.629969   
     axis -1.32723e-015 90 90   XYZ
    dof rx rz
    limits (-90.0 90.0)
           (-45.0 45.0)
  end
  begin
     id 22 
     name lfingers
     direction 1 -4.49089e-011 4.20095e-027   
     length 0.507897   
     axis -2.6545e-015 90 90   XYZ
    dof rx
    limits (0.0 90.0)
  end
  begin
     id 23
     name lthumb
     direction 0.707107 -6.35001e-011 0.707107   
     length 0.729241   
     axis -90 45 5.05613e-014   XYZ
    dof rx rz
    limits (-45.0 45.0)
           (-45.0 45.0)
  end
  begin
     id 24 
     name rclavicle
     direction -0.881882 0.464123 -0.0829113   
     length 3.47515  
     axis 0 0 0   XYZ 
    dof ry rz
    limits (-10.0 20.0)
           (-20.0 0.0)
  end
  begin
     id 25 
     name rhumerus
     direction -1 -4.48961e-011 -1.55672e-027  
     length 5.232   
     axis 180 30 90   XYZ
    dof rx ry rz
    limits (-90.0 60.0)
           (-90.0 90.0)
           (-90.0 90.0)
  end
  begin
     id 26 
     name rradius
     direction -1 -4.48963e-011 6.18178e-029   
     length 3.65641   
     axis 180 30 90   XYZ
    dof rx
    limits (-10.0 170.0)
  end
  begin
     id 27 
     name rwrist
     direction -1 -4.48982e-011 1.04136e-027   
     length 1.8282   
     axis -2.56395e-016 -90 -90   XYZ
    dof ry
    limits (-180.0 0.0)
  end
  begin
     id 28
     name rhand
     direction -1 -4.48929e-011 2.07378e-027   
     length 0.656807   
     axis -1.32723e-015 -90 -90   XYZ
    dof rx rz
    limits (-90.0 90.0)
           (-45.0 45.0)
  end
  begin
     id 29
     name rfingers
     direction -1 -4.489e-011 4.13816e-027   
     length 0.529535   
     axis -2.6545e-015 -90 -90   XYZ
    dof rx
    limits (0.0 90.0)
  end
  begin
     id 30
     name rthumb
     direction -0.707107 -6.34843e-011 0.707107   
     length 0.760309   
     axis -90 -45 -5.05613e-014   XYZ
    dof rx rz
    limits (-45.0 45.0)
           (-45.0 45.0)
  end
:hierarchy
  begin
    root lhipjoint rhipjoint lowerback
    lhipjoint lfemur
    lfemur ltibia
    ltibia lfoot
    lfoot ltoes
    rhipjoint rfemur
    rfemur rtibia
    rtibia rfoot
    rfoot rtoes
    lowerback upperback
    upperback thorax
    thorax lowerneck lclavicle rclavicle
    lowerneck upperneck
    upperneck head
    lclavicle lhumerus
    lhumerus lradius
    lradius lwrist
    lwrist lhand lthumb
    lhand lfingers
    rclavicle rhumerus
    rhumerus rradius
    rradius rwrist
    rwrist rhand rthumb
    rhand rfingers
  end

#!OML:ASF H:\ManfredETheater\Project 1\Capture day 1\Session 1\subject.ASF
:FULLY-SPECIFIED
:DEGREES
30
root 17.6258 14.7737 32.6563 -150.438 -39.484 -189.849
lowerback 22.3909 -3.35687 -1.33252
upperback 1.04743 -4.92648 0.228243
thorax -11.2421 -2.30173 2.57562
lowerneck -15.5265 -2.46258 -3.82217
upperneck -14.7996 -4.14565 5.71739
head -1.98867 -2.74484 2.41832
rclavicle -5.9039e-014 -8.74653e-015
rhumerus -54.4664 -4.25332 -83.3541
rradius 62.7462
rwrist -22.2701
rhand -42.9494 -0.296783
rfingers 7.12502
rthumb -15.8097 -29.6712
lclavicle -5.9039e-014 -8.74653e-015
lhumerus -18.3692 -28.9029 106.231
lradius 96.819
lwrist 7.1649
lhand -34.8284 -15.7351
lfingers 7.12502
lthumb -7.97916 14.0943
rfemur -74.1669 -15.7123 9.37012
rtibia 79.3546
rfoot -18.848 -13.2077
rtoes -35.0978
lfemur -35.9499 2.94266 -24.8215
ltibia 71.5645
lfoot -30.9773 -19.3106
ltoes -10.8428
31
root 17.4502 14.7706 32.2251 -150.653 -40.0091 -190.392
lowerback 22.4055 -3.61696 -1.53141
upperback 1.06799 -5.30577 0.345444
thorax -11.1801 -2.46696 2.93397
lowerneck -16.0265 -2.40467 -3.90292
upperneck -14.3603 -4.04881 5.60752
head -1.76691 -2.67546 2.37702
rclavicle 3.77691e-015 -4.11484e-014
rhumerus -58.0014 -4.01234 -82.8519
rradius 65.1874
rwrist -22.5377
rhand -43.3715 1.40005
rfingers 7.12502
rthumb -16.2161 -27.9417
lclavicle 3.77691e-015 -4.11484e-014
lhumerus -16.8943 -29.6827 106.565
lradius 100.543
lwrist 7.32978
lhand -35.1026 -15.8994
lfingers 7.12502
lthumb -8.24376 13.9198
rfemur -75.0818 -15.8209 8.70039
rtibia 76.7779
rfoot -18.609 -12.9014
rtoes -35.4378
lfemur -32.6482 2.91579 -24.1187
ltibia 69.6095
lfoot -30.349 -20.6049
ltoes -10.7884
32
root 17.2716 14.7364 31.7872 -150.874 -40.4555 -190.906
lowerback 22.367 -3.86966 -1.75466
upperback 1.08082 -5.67705 0.489363
thorax -11.088 -2.62779 3.32765
lowerneck -16.5253 -2.30766 -3.98192
upperneck -13.9338 -3.90478 5.43564
head -1.55488 -2.58416 2.31924
rclavicle -8.26944e-014 -1.27222e-014
rhumerus -61.6538 -3.58376 -82.3935
rradius 67.9199
rwrist -22.3438
rhand -43.6602 3.45853
rfingers 7.12502
rthumb -16.494 -25.8604
lclavicle -8.26944e-014 -1.27222e-014
lhumerus -15.6098 -30.426 106.824
lradius 104.412
lwrist 7.58018
lhand -35.3838 -16.1598
lfingers 7.12502
lthumb -8.51516 13.6485
rfemur -75.9839 -15.8798 8.02456
rtibia 74.1271
rfoot -18.1917 -12.6746
rtoes -35.8281
lfemur -29.3454 2.82255 -23.3853
ltibia 67.5598
lfoot -29.5184 -21.8515
ltoes -10.787
33
root 17.0815 14.7339 31.3405 -151.112 -40.8128 -191.361
lowerback 22.2527 -4.1165 -1.9735
upperback 1.08673 -6.03463 0.658123
thorax -10.9552 -2.78392 3.73344
lowerneck -17.0011 -2.16842 -4.06218
upperneck -13.5345 -3.70836 5.20975
head -1.36039 -2.46917 2.24949
rclavicle -6.36111e-014 -2.18663e-014
rhumerus -65.3441 -3.01025 -81.9669
rradius 70.7764
rwrist -21.6206
rhand -43.8169 5.78342
rfingers 7.12502
rthumb -16.6449 -23.5229
lclavicle -6.36111e-014 -2.18663e-014
lhumerus -14.5139 -31.1506 106.964
lradius 108.388
lwrist 7.94718
lhand -35.6444 -16.508
lfingers 7.12502
lthumb -8.76663 13.2899
rfemur -76.5006 -15.852 7.3789
rtibia 71.1545
rfoot -17.6818 -12.6069
rtoes -36.1889
lfemur -25.9094 2.63706 -22.6688
ltibia 65.1729
lfoot -28.3218 -23.0018
ltoes -10.8256
34
root 16.883 14.7326 30.8866 -151.374 -41.0526 -191.753
lowerback 22.0512 -4.34883 -2.18789
upperback 1.09092 -6.36832 0.841166
thorax -10.7717 -2.93198 4.13384
lowerneck -17.4373 -1.99175 -4.15015
upperneck -13.167 -3.46368 4.93678
head -1.18646 -2.33245 2.17144
rclavicle 3.73715e-014 1.59028e-014
rhumerus -68.9911 -2.33122 -81.5568
rradius 73.5961
rwrist -20.4471
rhand -43.8124 8.0166
rfingers 7.12502
rthumb -16.6406 -21.2901
lclavicle 3.73715e-014 1.59028e-014
lhumerus -13.6072 -31.8688 106.95
lradius 112.421
lwrist 8.40344
lhand -35.8643 -16.9106
lfingers 7.12502
lthumb -8.97888 12.8783
rfemur -76.8332 -15.7294 6.76051
rtibia 68.0266
rfoot -17.002 -12.6878
rtoes -36.47
lfemur -22.4251 2.35701 -21.9801
ltibia 62.5829
lfoot -26.6872 -24.0848
ltoes -10.733
35
root 16.6757 14.7337 30.425 -151.676 -41.1702 -192.072
lowerback 21.7616 -4.56274 -2.3796
upperback 1.09614 -6.66942 1.03035
thorax -10.5383 -3.06952 4.50564
lowerneck -17.8058 -1.78743 -4.2524
upperneck -12.8357 -3.18074 4.6261
head -1.03755 -2.17834 2.08912
rclavicle 2.38542e-015 2.38542e-015
rhumerus -72.5305 -1.57971 -81.16
rradius 76.2199
rwrist -18.9393
rhand -43.742 10.084
rfingers 7.12502
rthumb -16.5729 -19.2283
lclavicle 2.38542e-015 2.38542e-015
lhumerus -12.8931 -32.5929 106.767
lradius 116.443
lwrist 8.88934
lhand -36.0394 -17.3795
lfingers 7.12502
lthumb -9.14784 12.4021
rfemur -76.9546 -15.5058 6.18424
rtibia 64.7191
rfoot -16.1012 -12.8992
rtoes -36.6012
lfemur -18.8693 1.96375 -21.3427
ltibia 59.7345
lfoot -24.5426 -24.9905
ltoes -10.6675
36
root 16.4591 14.7378 29.9559 -152.024 -41.1533 -192.318
lowerback 21.3809 -4.7493 -2.53725
upperback 1.10914 -6.92508 1.2132
thorax -10.2509 -3.19196 4.82359
lowerneck -18.1171 -1.57305 -4.37388
upperneck -12.5266 -2.88034 4.28428
head -0.905719 -2.0164 2.00373
rclavicle -2.98177e-014 1.98785e-014
rhumerus -75.898 -0.794238 -80.7744
rradius 78.5471
rwrist -17.2805
rhand -43.6546 11.8092
rfingers 7.12502
rthumb -16.4887 -17.5101
lclavicle -2.98177e-014 1.98785e-014
lhumerus -12.374 -33.3334 106.413
lradius 120.373
lwrist 9.28422
lhand -36.1936 -17.897
lfingers 7.12502
lthumb -9.29659 11.878
rfemur -76.8859 -15.19 5.67246
rtibia 61.325
rfoot -15.0238 -13.1831
rtoes -36.4999
lfemur -15.2645 1.43906 -20.7987
ltibia 56.694
lfoot -21.8806 -25.6317
ltoes -10.6473
37
root 16.2333 14.7463 29.4799 -152.425 -40.9931 -192.487
lowerback 20.9078 -4.89676 -2.65138
upperback 1.13016 -7.1184 1.38316
thorax -9.91384 -3.29158 5.07039
lowerneck -18.3429 -1.36411 -4.52654
upperneck -12.2499 -2.57994 3.92314
head -0.797343 -1.85448 1.92041
rclavicle -3.63776e-014 2.22639e-014
rhumerus -79.0384 -0.011519 -80.3869
rradius 80.5193
rwrist -15.678
rhand -43.5515 13.0735
rfingers 7.12502
rthumb -16.3895 -16.2541
lclavicle -3.63776e-014 2.22639e-014
lhumerus -12.067 -34.0917 105.915
lradius 124.124
lwrist 9.48586
lhand -36.309 -18.4636
lfingers 7.12502
lthumb -9.40796 11.3064
rfemur -76.6364 -14.7698 5.23792
rtibia 57.8976
rfoot -13.8022 -13.4993
rtoes -36.1627
lfemur -11.6262 0.758213 -20.392
ltibia 53.4697
lfoot -18.6396 -25.8725
ltoes -10.7998
38
root 15.9988 14.7614 28.9962 -152.885 -40.7071 -192.584
lowerback 20.3732 -5.00709 -2.70702
upperback 1.152 -7.25026 1.53146
thorax -9.55667 -3.36733 5.2335
lowerneck -18.5013 -1.17407 -4.70964
upperneck -11.9741 -2.29417 3.55328
head -0.69835 -1.69833 1.84063
rclavicle 9.50191e-014 3.97569e-016
rhumerus -81.9057 0.7476 -79.9986
rradius 82.0906
rwrist -14.2705
rhand -43.4417 13.9119
rfingers 7.12502
rthumb -16.2837 -15.4244
lclavicle 9.50191e-014 3.97569e-016
lhumerus -12.0039 -34.8403 105.316
lradius 127.607
lwrist 9.39757
lhand -36.3938 -19.0755
lfingers 7.12502
lthumb -9.48977 10.6908
rfemur -76.1966 -14.2488 4.89519
rtibia 54.5113
rfoot -12.5357 -13.8282
rtoes -35.7134
lfemur -7.96332 -0.111114 -20.1592
ltibia 50.065
lfoot -14.7544 -25.6355
ltoes -11.2629
